#!OML:ASF F:\VICON\USERDATA\INSTALL\rory3\rory3.ASF
:FULLY-SPECIFIED
:DEGREES
3466
root -5.28406 17.6864 13.7268 233.287 -263.738 955.939
lowerback 12.2466 1.65834 -5.92737
upperback 0.694267 1.36309 -1.18491
thorax -6.25617 0.842293 1.8501
lowerneck -21.3672 -4.23328 -10.8583
upperneck 31.364 -3.98259 7.04034
head 14.8684 -1.81722 4.10054
rclavicle -2.01269e-015 1.03368e-014
rhumerus -32.6407 -8.8187 -83.4086
rradius 34.8179
rwrist 1.19921
rhand -17.1594 8.73659
rfingers 7.12502
rthumb 9.0815 -21.0479
lclavicle -2.01269e-015 1.03368e-014
lhumerus -38.0351 7.60475 79.0004
lradius 38.203
lwrist -1.10311
lhand -20.3624 26.8068
lfingers 7.12502
lthumb 5.98991 56.7021
rfemur -24.9286 -1.85856 12.7743
rtibia 51.6652
rfoot -12.8244 -0.362733
rtoes -5.00347
lfemur 0.207795 2.74692 -31.6113
ltibia 17.2203
lfoot -10.6644 -14.546
ltoes 18.2273
3467
root -5.17195 17.686 13.7345 235.691 -263.869 958.306
lowerback 12.2172 1.6384 -6.1195
upperback 0.706166 1.31555 -1.14759
thorax -6.2288 0.824256 2.00671
lowerneck -21.2751 -4.25658 -11.0632
upperneck 31.2054 -4.0015 7.19066
head 14.788 -1.82943 4.1891
rclavicle 6.52262e-016 2.23633e-015
rhumerus -32.6079 -8.50428 -83.4018
rradius 34.9301
rwrist 1.16608
rhand -17.0069 8.86885
rfingers 7.12502
rthumb 9.22864 -20.9092
lclavicle 6.52262e-016 2.23633e-015
lhumerus -37.7634 7.36323 79.1669
lradius 38.6216
lwrist -0.863305
lhand -21.5349 25.9039
lfingers 7.12502
lthumb 4.85786 55.8282
rfemur -25.2842 -1.63428 12.7062
rtibia 49.7586
rfoot -12.3369 -0.547329
rtoes -4.90495
lfemur 0.721225 2.58656 -31.6378
ltibia 16.9738
lfoot -10.8627 -14.2403
ltoes 18.1513
3468
root -5.06045 17.6901 13.7422 238.537 -263.96 961.089
lowerback 12.1524 1.62744 -6.26342
upperback 0.733908 1.2866 -1.19141
thorax -6.16285 0.812113 2.04805
lowerneck -21.2818 -4.27134 -11.1303
upperneck 31.153 -4.04781 7.33699
head 14.7769 -1.8361 4.25211
rclavicle -1.37938e-014 -1.57288e-014
rhumerus -32.5501 -8.17936 -83.4737
rradius 35.0452
rwrist 1.19658
rhand -16.8659 9.01767
rfingers 7.12502
rthumb 9.36469 -20.7543
lclavicle -1.37938e-014 -1.57288e-014
lhumerus -37.4352 7.066 79.1968
lradius 39.0532
lwrist -0.831972
lhand -22.5505 23.9323
lfingers 7.12502
lthumb 3.87717 53.8768
rfemur -25.6378 -1.4669 12.6152
rtibia 47.796
rfoot -11.4281 -0.940051
rtoes -5.31206
lfemur 1.3496 2.09729 -31.7664
ltibia 16.4492
lfoot -10.4439 -14.3231
ltoes 19.5491
3469
root -4.95087 17.6937 13.7483 241.661 -264.034 964.182
lowerback 12.1646 1.59649 -6.38986
upperback 0.760443 1.22687 -1.25576
thorax -6.13773 0.785362 2.06165
lowerneck -21.3796 -4.28264 -11.0617
upperneck 31.1858 -4.08263 7.3432
head 14.8158 -1.84076 4.238
rclavicle 7.68116e-015 3.36692e-015
rhumerus -32.4812 -7.95557 -83.5992
rradius 35.1519
rwrist 1.17249
rhand -17.1225 8.93427
rfingers 7.12502
rthumb 9.11712 -20.8487
lclavicle 7.68116e-015 3.36692e-015
lhumerus -37.1443 6.73119 79.1683
lradius 39.4587
lwrist -0.807132
lhand -22.6677 22.987
lfingers 7.12502
lthumb 3.76404 52.9335
rfemur -25.9312 -1.20035 12.4718
rtibia 45.7848
rfoot -10.4415 -1.39488
rtoes -4.61651
lfemur 2.06748 2.2481 -31.829
ltibia 15.732
lfoot -10.4211 -14.6129
ltoes 17.9567
3470
root -4.83902 17.6978 13.7579 244.755 -264.156 967.205
lowerback 12.1536 1.59052 -6.50776
upperback 0.763969 1.20387 -1.27159
thorax -6.12811 0.777222 2.11534
lowerneck -21.3581 -4.36058 -11.1558
upperneck 31.1192 -4.20975 7.47364
head 14.8033 -1.88776 4.28271
rclavicle -1.96393e-014 7.83491e-015
rhumerus -32.4225 -7.92466 -83.6637
rradius 35.1992
rwrist 1.14961
rhand -17.2648 8.84886
rfingers 7.12502
rthumb 8.97985 -20.94
lclavicle -1.96393e-014 7.83491e-015
lhumerus -36.8187 6.22237 79.2876
lradius 39.8098
lwrist -0.791084
lhand -22.1652 23.0534
lfingers 7.12502
lthumb 4.24923 52.9908
rfemur -26.2135 -0.715329 12.3465
rtibia 43.721
rfoot -9.33531 -2.07501
rtoes -2.95079
lfemur 2.79264 2.94351 -31.7201
ltibia 14.9013
lfoot -10.599 -15.2312
ltoes 16.0499
3471
root -4.7256 17.7063 13.7651 248.693 -264.356 971.046
lowerback 12.0747 1.57323 -6.49846
upperback 0.765598 1.18839 -1.28289
thorax -6.08035 0.768088 2.1025
lowerneck -21.2797 -4.44149 -11.19
upperneck 31.0443 -4.34952 7.54887
head 14.7729 -1.94068 4.29058
rclavicle -3.03613e-016 1.13183e-014
rhumerus -32.4143 -7.75749 -83.7317
rradius 35.2986
rwrist 0.899009
rhand -17.0353 8.74353
rfingers 7.12502
rthumb 9.20124 -21.0357
lclavicle -3.03613e-016 1.13183e-014
lhumerus -36.4717 5.82203 79.4365
lradius 40.1024
lwrist -1.10265
lhand -21.5281 22.9955
lfingers 7.12502
lthumb 4.86448 52.9197
rfemur -26.4406 -0.4739 12.3031
rtibia 41.5974
rfoot -7.94183 -2.85342
rtoes -0.897026
lfemur 3.57657 2.94817 -31.6041
ltibia 13.9865
lfoot -10.2371 -15.6808
ltoes 16.5922
3472
root -4.6132 17.7098 13.7692 253.031 -264.54 975.324
lowerback 12.0431 1.53673 -6.45555
upperback 0.777589 1.14939 -1.28213
thorax -6.04556 0.746874 2.08691
lowerneck -21.2953 -4.49309 -11.0907
upperneck 31.0989 -4.40969 7.40578
head 14.8021 -1.97361 4.20335
rclavicle -1.38264e-014 9.06955e-016
rhumerus -32.4399 -7.51392 -83.77
rradius 35.4139
rwrist 0.647815
rhand -17.0763 8.72272
rfingers 7.12502
rthumb 9.16175 -21.0583
lclavicle -1.38264e-014 9.06955e-016
lhumerus -36.2075 5.55183 79.5295
lradius 40.4231
lwrist -1.2118
lhand -20.5186 22.7565
lfingers 7.12502
lthumb 5.83911 52.6561
rfemur -26.5976 -0.483326 12.2964
rtibia 39.427
rfoot -6.61411 -3.42853
rtoes 1.01089
lfemur 4.37942 2.56536 -31.5739
ltibia 13.1083
lfoot -10.0324 -15.6975
ltoes 15.5512
